<mxfile host="app.diagrams.net" agent="Mozilla/5.0 (Windows NT 10.0; Win64; x64) AppleWebKit/537.36 (KHTML, like Gecko) Chrome/129.0.0.0 Safari/537.36 Edg/129.0.0.0" version="24.7.17">
  <diagram name="Page-1" id="822b0af5-4adb-64df-f703-e8dfc1f81529">
    <mxGraphModel dx="1379" dy="903" grid="1" gridSize="10" guides="1" tooltips="1" connect="1" arrows="1" fold="1" page="1" pageScale="1" pageWidth="1100" pageHeight="850" background="none" math="0" shadow="0">
      <root>
        <mxCell id="0" />
        <mxCell id="1" parent="0" />
        <mxCell id="JcZX-XEoftpdGkfw0eMo-1" value="SCM" style="dashed=0;outlineConnect=0;html=1;align=center;labelPosition=center;verticalLabelPosition=bottom;verticalAlign=top;shape=mxgraph.weblogos.github" vertex="1" parent="1">
          <mxGeometry x="250" y="245" width="75" height="75" as="geometry" />
        </mxCell>
        <mxCell id="JcZX-XEoftpdGkfw0eMo-3" value="proxmox" style="ellipse;shape=cloud;whiteSpace=wrap;html=1;" vertex="1" parent="1">
          <mxGeometry x="400" y="225" width="545" height="400" as="geometry" />
        </mxCell>
        <mxCell id="JcZX-XEoftpdGkfw0eMo-4" value="VM1" style="sketch=0;aspect=fixed;pointerEvents=1;shadow=0;dashed=0;html=1;strokeColor=none;labelPosition=center;verticalLabelPosition=bottom;verticalAlign=top;align=center;fillColor=#00188D;shape=mxgraph.azure.virtual_machine_feature" vertex="1" parent="1">
          <mxGeometry x="610" y="305" width="66.67" height="60" as="geometry" />
        </mxCell>
        <mxCell id="JcZX-XEoftpdGkfw0eMo-6" value="VM1" style="sketch=0;aspect=fixed;pointerEvents=1;shadow=0;dashed=0;html=1;strokeColor=none;labelPosition=center;verticalLabelPosition=bottom;verticalAlign=top;align=center;fillColor=#00188D;shape=mxgraph.azure.virtual_machine_feature" vertex="1" parent="1">
          <mxGeometry x="750" y="315" width="66.67" height="60" as="geometry" />
        </mxCell>
        <mxCell id="JcZX-XEoftpdGkfw0eMo-7" value="HOST" style="image;sketch=0;aspect=fixed;html=1;points=[];align=center;fontSize=12;image=img/lib/mscae/Non_Azure_Machine.svg;" vertex="1" parent="1">
          <mxGeometry x="540" y="415" width="31" height="50" as="geometry" />
        </mxCell>
        <mxCell id="JcZX-XEoftpdGkfw0eMo-12" value="" style="endArrow=classic;startArrow=classic;html=1;rounded=0;entryX=-0.03;entryY=0.983;entryDx=0;entryDy=0;entryPerimeter=0;exitX=1;exitY=0.04;exitDx=0;exitDy=0;exitPerimeter=0;" edge="1" parent="1" source="JcZX-XEoftpdGkfw0eMo-7" target="JcZX-XEoftpdGkfw0eMo-4">
          <mxGeometry width="50" height="50" relative="1" as="geometry">
            <mxPoint x="560" y="415" as="sourcePoint" />
            <mxPoint x="610" y="365" as="targetPoint" />
          </mxGeometry>
        </mxCell>
        <mxCell id="JcZX-XEoftpdGkfw0eMo-15" value="" style="endArrow=classic;startArrow=classic;html=1;rounded=0;exitX=0.935;exitY=0.76;exitDx=0;exitDy=0;exitPerimeter=0;entryX=0.03;entryY=0.933;entryDx=0;entryDy=0;entryPerimeter=0;" edge="1" parent="1" source="JcZX-XEoftpdGkfw0eMo-7" target="JcZX-XEoftpdGkfw0eMo-6">
          <mxGeometry width="50" height="50" relative="1" as="geometry">
            <mxPoint x="600" y="695" as="sourcePoint" />
            <mxPoint x="650" y="645" as="targetPoint" />
          </mxGeometry>
        </mxCell>
        <mxCell id="JcZX-XEoftpdGkfw0eMo-16" value="Workstation" style="sketch=0;pointerEvents=1;shadow=0;dashed=0;html=1;strokeColor=none;fillColor=#005F4B;labelPosition=center;verticalLabelPosition=bottom;verticalAlign=top;align=center;outlineConnect=0;shape=mxgraph.veeam2.workstation;" vertex="1" parent="1">
          <mxGeometry x="260" y="475" width="100" height="100" as="geometry" />
        </mxCell>
        <mxCell id="JcZX-XEoftpdGkfw0eMo-17" value="" style="endArrow=classic;startArrow=classic;html=1;rounded=0;" edge="1" parent="1" source="JcZX-XEoftpdGkfw0eMo-16" target="JcZX-XEoftpdGkfw0eMo-1">
          <mxGeometry width="50" height="50" relative="1" as="geometry">
            <mxPoint x="600" y="395" as="sourcePoint" />
            <mxPoint x="650" y="345" as="targetPoint" />
          </mxGeometry>
        </mxCell>
        <mxCell id="JcZX-XEoftpdGkfw0eMo-18" value="" style="endArrow=classic;startArrow=classic;html=1;rounded=0;entryX=0;entryY=0.9;entryDx=0;entryDy=0;entryPerimeter=0;" edge="1" parent="1" source="JcZX-XEoftpdGkfw0eMo-16" target="JcZX-XEoftpdGkfw0eMo-7">
          <mxGeometry width="50" height="50" relative="1" as="geometry">
            <mxPoint x="600" y="395" as="sourcePoint" />
            <mxPoint x="650" y="345" as="targetPoint" />
          </mxGeometry>
        </mxCell>
      </root>
    </mxGraphModel>
  </diagram>
</mxfile>
